<svg width="528" height="218" viewBox="0 0 528 218" fill="none" xmlns="http://www.w3.org/2000/svg">
<path d="M520.905 101.237C521.018 100.942 520.727 100.721 520.727 100.721C520.727 100.721 512.772 93.7604 512.395 93.4499C512.017 93.1396 511.777 93.121 511.777 93.121C511.87 93.0139 511.897 92.8691 511.897 92.8691C511.897 92.8691 513.83 82.5333 513.892 81.9765C513.955 81.4198 513.178 81.2698 513.178 81.2698L500.426 78.2735C499.493 78.1407 499.41 79.0909 499.41 79.0909C499.41 79.0909 497.125 91.8964 496.949 92.6922C496.772 93.488 497.2 93.9849 497.2 93.9849C497.114 94.1271 497.419 94.4927 497.419 94.4927L506.036 104.324C506.203 104.515 506.531 104.644 506.531 104.644C506.817 104.78 507.136 104.749 507.136 104.749C507.136 104.749 520.266 101.611 520.587 101.498C520.908 101.385 520.905 101.237 520.905 101.237Z" fill="#4C2923"/>
<path d="M497.755 91.6375L499.886 79.0974L513.554 82.0763L511.698 92.0756L497.755 91.6375Z" fill="white"/>
<path d="M499.227 82.9618L499.88 79.0469L513.565 82.0336L511.688 92.0814L509.128 91.9748L510.585 84.8429L499.227 82.9618Z" fill="#D9D9D9"/>
<g clip-path="url(#clip0_896_7493)">
<path d="M496.878 103.683L497.058 103.647L497.238 103.611C497.237 103.587 497.237 103.564 497.236 103.54C497.235 103.516 497.235 103.493 497.235 103.47C497.235 102.569 497.642 101.708 498.419 100.924C499.197 100.141 500.344 99.4349 501.824 98.845C503.212 98.2916 504.825 97.8624 506.579 97.5713C508.334 97.2802 510.229 97.1279 512.18 97.1279C514.13 97.1279 516.026 97.2802 517.78 97.5713C519.534 97.8624 521.148 98.291 522.536 98.845C524.015 99.4349 525.163 100.141 525.94 100.924C526.717 101.708 527.125 102.569 527.125 103.47C527.125 104.372 526.717 105.233 525.94 106.016C525.163 106.8 524.015 107.505 522.536 108.095C521.148 108.649 519.534 109.078 517.78 109.369C516.025 109.66 514.13 109.812 512.18 109.812C510.229 109.812 508.333 109.66 506.579 109.369C504.825 109.078 503.212 108.649 501.824 108.095C501.103 107.808 500.462 107.493 499.904 107.155C499.346 106.818 498.871 106.457 498.483 106.077C498.505 106.432 498.546 106.821 498.618 107.235C498.689 107.649 498.789 108.086 498.931 108.533C499.407 110.05 500.212 111.332 501.335 112.371C502.458 113.411 503.901 114.207 505.654 114.755C507.899 115.456 509.937 116.209 511.717 116.993C513.498 117.777 515.022 118.592 516.239 119.416C517.56 120.31 518.532 121.213 519.15 122.118C519.768 123.022 520.033 123.93 519.94 124.832C519.891 125.302 519.777 125.699 519.595 126.021C519.414 126.343 519.168 126.591 518.857 126.761C518.098 127.178 517.071 127.048 515.858 126.619C514.646 126.189 513.248 125.461 511.747 124.679C509.929 123.731 507.989 122.721 506.297 122.213C504.606 121.705 503.162 121.701 502.335 122.767C501.944 123.272 501.758 123.894 501.774 124.518C501.79 125.141 502.009 125.768 502.427 126.281C503.038 127.032 504.01 127.814 505.55 128.309C507.091 128.804 509.199 129.012 512.082 128.616C512.569 128.55 513.051 128.556 513.515 128.631C513.98 128.707 514.427 128.854 514.844 129.068C515.71 129.515 516.278 130.14 516.531 130.893C516.783 131.646 516.72 132.527 516.324 133.484C516.275 133.605 516.192 133.701 516.092 133.768C515.991 133.834 515.873 133.87 515.752 133.87C515.712 133.87 515.672 133.866 515.632 133.858C515.591 133.85 515.552 133.837 515.512 133.821C515.354 133.754 515.238 133.628 515.178 133.479C515.118 133.33 515.114 133.157 515.18 132.997C515.453 132.337 515.518 131.785 515.37 131.323C515.222 130.86 514.861 130.488 514.282 130.19C513.978 130.033 513.65 129.926 513.308 129.871C512.966 129.816 512.609 129.813 512.248 129.862C509.082 130.296 506.743 130.038 505.017 129.453C503.292 128.867 502.18 127.954 501.469 127.08C500.867 126.34 500.554 125.434 500.535 124.53C500.515 123.625 500.789 122.722 501.359 121.986C501.884 121.309 502.558 120.884 503.393 120.709C504.227 120.534 505.222 120.609 506.389 120.931C507.329 121.19 508.313 121.587 509.31 122.049C510.308 122.512 511.319 123.038 512.313 123.557C513.487 124.169 514.74 124.822 515.817 125.257C516.894 125.692 517.795 125.91 518.266 125.652C518.31 125.628 518.401 125.578 518.49 125.44C518.579 125.303 518.666 125.077 518.705 124.699C518.845 123.337 517.63 121.818 515.311 120.307C512.991 118.795 509.566 117.29 505.288 115.955C502.834 115.189 501.128 114.014 499.945 112.73C498.761 111.446 498.099 110.055 497.73 108.859C497.481 108.054 497.346 107.286 497.278 106.608C497.21 105.929 497.209 105.34 497.229 104.893L497.175 104.904L497.121 104.915C497.1 104.919 497.08 104.923 497.059 104.925C497.039 104.926 497.018 104.928 496.999 104.928C496.854 104.928 496.717 104.876 496.608 104.787C496.5 104.698 496.42 104.571 496.391 104.422C496.358 104.252 496.395 104.083 496.483 103.949C496.572 103.815 496.71 103.715 496.878 103.681L496.878 103.683ZM498.739 103.306C498.907 103.272 499.073 103.31 499.205 103.399C499.337 103.489 499.435 103.629 499.469 103.799C499.503 103.969 499.465 104.138 499.377 104.271C499.289 104.405 499.151 104.506 498.983 104.539L498.91 104.554L498.838 104.569C499.117 104.997 499.553 105.416 500.132 105.813C500.71 106.21 501.431 106.585 502.279 106.923C503.596 107.448 505.135 107.856 506.812 108.132C508.49 108.407 510.306 108.553 512.181 108.553C514.056 108.553 515.873 108.408 517.551 108.132C519.228 107.857 520.766 107.449 522.084 106.923C523.292 106.441 524.243 105.886 524.891 105.297C525.54 104.708 525.886 104.085 525.886 103.47C525.886 102.854 525.54 102.231 524.891 101.642C524.243 101.053 523.292 100.497 522.084 100.015C520.766 99.4899 519.228 99.0824 517.551 98.8066C515.873 98.5309 514.056 98.3857 512.181 98.3857C510.306 98.3857 508.49 98.5303 506.812 98.8066C505.135 99.083 503.596 99.4899 502.279 100.015C501.107 100.483 500.178 101.02 499.531 101.589C498.884 102.158 498.521 102.76 498.481 103.358L498.611 103.332L498.741 103.305L498.739 103.306Z" fill="#4C2923"/>
</g>
<path d="M6.59617 101.237C6.48367 100.942 6.77471 100.721 6.77471 100.721C6.77471 100.721 14.7294 93.7604 15.1064 93.4499C15.4841 93.1396 15.7242 93.121 15.7242 93.121C15.6319 93.0139 15.6041 92.8691 15.6041 92.8691C15.6041 92.8691 13.6716 82.5333 13.609 81.9765C13.5464 81.4198 14.3233 81.2698 14.3233 81.2698L27.0755 78.2735C28.0082 78.1407 28.0918 79.0909 28.0918 79.0909C28.0918 79.0909 30.376 91.8964 30.5524 92.6922C30.7289 93.488 30.3016 93.9849 30.3016 93.9849C30.3877 94.1271 30.0825 94.4927 30.0825 94.4927L21.4658 104.324C21.2982 104.515 20.9702 104.644 20.9702 104.644C20.6848 104.78 20.3656 104.749 20.3656 104.749C20.3656 104.749 7.23528 101.611 6.91434 101.498C6.59339 101.385 6.59617 101.237 6.59617 101.237Z" fill="#4C2923"/>
<path d="M29.7462 91.6375L27.6159 79.0974L13.9478 82.0763L15.803 92.0756L29.7462 91.6375Z" fill="white"/>
<path d="M30.6224 103.683L30.4419 103.647L30.2615 103.611C30.2628 103.587 30.2634 103.564 30.264 103.54C30.2647 103.516 30.2653 103.493 30.2653 103.47C30.2653 102.569 29.8577 101.708 29.0805 100.924C28.3033 100.141 27.1557 99.4349 25.6763 98.845C24.2884 98.2916 22.6746 97.8624 20.9207 97.5713C19.1663 97.2802 17.2711 97.1279 15.3205 97.1279C13.3698 97.1279 11.474 97.2802 9.72017 97.5713C7.9657 97.8624 6.35192 98.291 4.96399 98.845C3.48459 99.4349 2.33703 100.141 1.55979 100.924C0.782546 101.708 0.375 102.569 0.375 103.47C0.375 104.372 0.782546 105.233 1.55979 106.016C2.33703 106.8 3.48459 107.505 4.96399 108.095C6.35192 108.649 7.9657 109.078 9.72017 109.369C11.4746 109.66 13.3698 109.812 15.3205 109.812C17.2711 109.812 19.1669 109.66 20.9207 109.369C22.6752 109.078 24.2884 108.649 25.6763 108.095C26.3968 107.808 27.0377 107.493 27.5961 107.155C28.1544 106.818 28.6294 106.457 29.0168 106.077C28.9947 106.432 28.9537 106.821 28.8824 107.235C28.8111 107.649 28.7108 108.086 28.5695 108.533C28.0925 110.05 27.2882 111.332 26.1652 112.371C25.0423 113.411 23.5994 114.207 21.8456 114.755C19.601 115.456 17.5632 116.209 15.7829 116.993C14.0019 117.777 12.4784 118.592 11.2608 119.416C9.93972 120.31 8.96817 121.213 8.34991 122.118C7.73165 123.022 7.46731 123.93 7.56005 124.832C7.60863 125.302 7.72345 125.699 7.90451 126.021C8.08557 126.343 8.33224 126.591 8.64326 126.761C9.40158 127.178 10.4286 127.048 11.6418 126.619C12.8544 126.189 14.2524 125.461 15.7532 124.679C17.5714 123.731 19.5114 122.721 21.2028 122.213C22.8941 121.705 24.3382 121.701 25.1647 122.767C25.5558 123.272 25.7419 123.894 25.7261 124.518C25.7097 125.141 25.4914 125.768 25.0732 126.281C24.4619 127.032 23.4897 127.814 21.9497 128.309C20.4091 128.804 18.3007 129.012 15.4182 128.616C14.9312 128.55 14.4492 128.556 13.9849 128.631C13.5199 128.707 13.0733 128.854 12.6563 129.068C11.7901 129.515 11.2217 130.14 10.9693 130.893C10.717 131.646 10.78 132.527 11.1756 133.484C11.2254 133.605 11.3081 133.701 11.4084 133.768C11.5087 133.834 11.6267 133.87 11.7478 133.87C11.7876 133.87 11.8279 133.866 11.8683 133.858C11.9087 133.85 11.9484 133.837 11.9875 133.821C12.1459 133.754 12.262 133.628 12.3219 133.479C12.3818 133.33 12.3863 133.157 12.32 132.997C12.0468 132.337 11.9819 131.785 12.1301 131.323C12.2784 130.86 12.6392 130.488 13.2184 130.19C13.5225 130.033 13.8499 129.926 14.1925 129.871C14.5344 129.816 14.8908 129.813 15.2523 129.862C18.4181 130.296 20.7574 130.038 22.4828 129.453C24.2082 128.867 25.3198 127.954 26.0308 127.08C26.6327 126.34 26.9456 125.434 26.9652 124.53C26.9847 123.625 26.7109 122.722 26.1406 121.986C25.6157 121.309 24.942 120.884 24.1073 120.709C23.2727 120.534 22.2778 120.609 21.1106 120.931C20.1713 121.19 19.1871 121.587 18.1897 122.049C17.1923 122.512 16.181 123.038 15.1867 123.557C14.0127 124.169 12.7597 124.822 11.6828 125.257C10.6059 125.692 9.70503 125.91 9.2344 125.652C9.1896 125.628 9.09939 125.578 9.01043 125.44C8.92148 125.303 8.83379 125.077 8.79531 124.699C8.65462 123.337 9.86969 121.818 12.1894 120.307C14.5092 118.795 17.9335 117.29 22.2122 115.955C24.6663 115.189 26.3715 114.014 27.555 112.73C28.7386 111.446 29.401 110.055 29.77 108.859C30.0186 108.054 30.1536 107.286 30.2218 106.608C30.2899 105.929 30.2912 105.34 30.271 104.893L30.3252 104.904L30.3795 104.915C30.4003 104.919 30.4205 104.923 30.4407 104.925C30.4609 104.926 30.4817 104.928 30.5012 104.928C30.6463 104.928 30.7832 104.876 30.8917 104.787C31.0003 104.698 31.0797 104.571 31.1088 104.422C31.1422 104.252 31.105 104.083 31.0167 103.949C30.9283 103.815 30.7902 103.715 30.6217 103.681L30.6224 103.683ZM28.7606 103.306C28.5928 103.272 28.4269 103.31 28.2951 103.399C28.1632 103.489 28.0648 103.629 28.0307 103.799C27.9973 103.969 28.0351 104.138 28.1228 104.271C28.2112 104.405 28.3493 104.506 28.5171 104.539L28.5897 104.554L28.6622 104.569C28.3834 104.997 27.9474 105.416 27.3683 105.813C26.7898 106.21 26.0687 106.585 25.2208 106.923C23.9035 107.448 22.3655 107.856 20.688 108.132C19.0105 108.407 17.1935 108.553 15.3186 108.553C13.4436 108.553 11.6267 108.408 9.94918 108.132C8.27168 107.857 6.7336 107.449 5.41633 106.923C4.2082 106.441 3.25747 105.886 2.60893 105.297C1.96039 104.708 1.61404 104.085 1.61404 103.47C1.61404 102.854 1.96039 102.231 2.60893 101.642C3.25747 101.053 4.2082 100.497 5.41633 100.015C6.7336 99.4899 8.27168 99.0824 9.94918 98.8066C11.6267 98.5309 13.4436 98.3857 15.3186 98.3857C17.1935 98.3857 19.0105 98.5303 20.688 98.8066C22.3655 99.083 23.9035 99.4899 25.2208 100.015C26.393 100.483 27.3223 101.02 27.9689 101.589C28.6155 102.158 28.9789 102.76 29.0193 103.358L28.8893 103.332L28.7594 103.305L28.7606 103.306Z" fill="#414042"/>
<path d="M28.3125 82.993L27.6592 79.0781L13.9741 82.0649L15.8514 92.1127L18.4114 92.006L16.9545 84.8742L28.3125 82.993Z" fill="#D9D9D9"/>
<path opacity="0.3" d="M12.9219 72.5176V38.0645H32.6334V11.8145H19.4924V24.9395H45.7743V5.25195H481.069V24.9395H507.351V11.8145H494.21V38.0645H513.922V72.5176M513.922 151.268V182.439H494.21V208.689H507.351V195.564H481.069V215.252H45.7743V195.564H19.4924V208.689H32.6334M32.6334 208.689V197.205M32.6334 208.689V182.439H12.9219V151.268" stroke="#4C2923" stroke-width="4" stroke-linecap="square"/>
<path d="M12.9219 69.5176V35.0645H32.6334V8.81445H19.4924V21.9395H45.7743V2.25195H481.069V21.9395H507.351V8.81445H494.21V35.0645H513.922V69.5176M513.922 148.268V179.439H494.21V205.689H507.351V192.564H481.069V212.252H45.7743V192.564H19.4924V205.689H32.6334M32.6334 205.689V194.205M32.6334 205.689V179.439H12.9219V148.268" stroke="#4C2923" stroke-width="4" stroke-linecap="square"/>
<defs>
<clipPath id="clip0_896_7493">
<rect width="31" height="37" fill="white" transform="matrix(-1 0 0 1 527.25 97)"/>
</clipPath>
</defs>
</svg>
