<svg xmlns="http://www.w3.org/2000/svg" width="121" height="13" viewBox="0 0 121 13">
  <g fill="#4C2923" fill-rule="evenodd" transform="translate(0 -3)">
    <path d="M58.7508462,12.7118414 L55.9038059,14.0961941 L57.2881586,11.2491538 C57.8251116,10.1448637 57.8251116,8.8551363 57.2881586,7.75084621 L55.9038059,4.90380592 L58.7508462,6.28815856 C59.8551363,6.82511159 61.1448637,6.82511159 62.2491538,6.28815856 L65.0961941,4.90380592 L63.7118414,7.75084621 C63.1748884,8.8551363 63.1748884,10.1448637 63.7118414,11.2491538 L65.0961941,14.0961941 L62.2491538,12.7118414 C61.1448637,12.1748884 59.8551363,12.1748884 58.7508462,12.7118414 Z" opacity=".4" transform="rotate(45 60.5 9.5)"/>
    <path d="M74.8393588,11.1486185 L70,9.5 L74.8424192,7.84241925 L76.5,5 L77.0431556,5.93545815 C77.731448,7.12088045 78.9788125,7.87129875 80.3485553,7.92399678 L121,9.48797724 L80.353024,11.0601747 C78.9791782,11.1133141 77.7289025,11.8683031 77.0422343,13.0594215 L76.5,14 L74.8393588,11.1486185 Z" opacity=".2"/>
    <path d="M3.421947,10.6657505 L2.55795385e-13,9.5 L3.43294568,8.32488806 C4.34209086,8.01368379 5.1088212,7.38559321 5.59289939,6.555496 L6.5,5 L7.0431556,5.93545815 C7.73144802,7.12088045 8.9788125,7.87129875 10.3485553,7.92399678 L51,9.48797724 L10.3400265,11.0606774 C8.97326915,11.1135427 7.72827984,11.8611065 7.03924962,13.0426554 L6.48797724,13.9879772 L5.59124415,12.4435648 C5.10641627,11.6085624 4.33591705,10.9771116 3.421947,10.6657505 Z" opacity=".2" transform="matrix(-1 0 0 1 51 0)"/>
  </g>
</svg>
